<?xml version="1.0" encoding="UTF-8"?>
<svg id="Layer_1" data-name="Layer 1" xmlns="http://www.w3.org/2000/svg" viewBox="0 0 1156.59 620.01">
  <defs>
    <style>
      .cls-1 {
        fill: #111;
      }
    </style>
  </defs>
  <path class="cls-1" d="M307.55,63.42c64.25-21.69,130.03-40.47,197.64-48.85,54.36-6.74,170.03-13.27,200.54,44.17,31.15,58.64-42.16,126.37-83.73,158.64-91.16,70.78-206.49,118.69-317.24,149.76-20.48,5.74-41.34,10.14-61.71,16.29l-8.58,74.32c18.89,8.64,62.02,28.83,56.62,54.73-2.33,11.17-20.97,21.17-28.52,30.47-13.28,16.36-16.26,41.13-5.85,59.79,2.19,3.92,11.29,11.83,11.71,13.36,2.25,8.34-13.26,1.02-16.22-.85-19.78-12.46-26.36-40.52-28.65-62.35-3.01-28.63-2.44-58.37.09-87.01-.04-1.24-.04-2.14-1.08-3.01-1.67-1.39-18.69-6.61-22.25-7.75-43.28-13.82-90.8-21.66-136.22-22.78-12.39-.3-31.13,2.76-41.98.98-8.96-1.47-5.78-8.03.39-11.5,12.38-6.98,38.47-11.6,53.05-14.95,52.09-11.99,104.9-21.14,156.88-33.63,13.4-97.31,33.17-193.72,57.13-288.85-1.04-.79-14.2,4.15-16.52,4.97-45.88,16.38-92.7,37.05-135.16,60.84-37.25,20.88-105.77,63.64-122.09,103.91-11.02,27.19,3.04,43.26,24.27,58.26l-1.03,1.99c-3.18.78-13.21-5.66-16.21-7.76-68.78-48.03,36.14-122.34,75.82-147.65,60.11-38.34,126.75-65.89,193.49-90.51l10.22-35.86c.72-2.67-.91-5.07-.85-7.68.25-9.99,14.88-30.72,26.45-23.43,2.99,1.88,3.05,7.19,2.54,10.34-1.03,6.37-9.4,8.85-12.14,13.85-3.28,5.99-8.86,25.51-10.34,32.66-.35,1.69-.67,3.3-.45,5.04ZM244.55,369.42c3.4.11,6.72-.75,10-1.49,76.22-17.18,163.47-49.84,233.38-84.62,62.86-31.28,178.35-101.94,203.37-169.63,34.03-92.06-108.42-92.26-163.24-87.24-76.22,6.98-152.18,28.7-224.49,52.51-24.85,95.57-45.51,192.53-59.02,290.48ZM230.55,386.42l-168.99,35.99c55.12,2.38,109.54,12.58,161.42,30.96l7.57-66.95ZM255.9,532.77c12.27-12.79,34.95-17.43,19.06-38.26-8.59-11.27-27.21-21.24-40.41-26.08-1.31,27.72-2.18,56.85,1.01,84.48.16,1.35,2.42,17.81,3.98,15.51.3-12.78,7.66-26.58,16.36-35.65Z"/>
  <path class="cls-1" d="M661.55,383.42c-51.63-3.44-104.29,2.45-155.34,10.16-49.58,7.49-99.6,18.35-148.09,30.91-4.99,1.29-23.67,7.81-26.92,6.78-.96-.31-1.89-1.23-1.65-2.34,1.27-1.44,2.57-2.8,4.29-3.73,8.9-4.78,27.6-9.85,37.94-13.06,62.44-19.4,134.13-33.14,199.28-39.72,27-2.73,69.78-7.22,95.75-2.77,14.54,2.49,13.63,13.58,7.56,24.09-6.41,11.09-17.04,21.61-23.82,32.67,4.49.41,8.74-1.29,13-2.49,33.39-9.4,91.32-35.67,124.8-26.79,21.47,5.69,21.32,26.81,42.68,35.32,37.68,15.02,103.96,7.1,143.71-.34,62.67-11.72,125.91-33.44,178.75-69.27l3.05,1.14c1.11,4.41-13.01,14.63-16.67,17.26-66.74,47.95-217.31,84.31-297.52,68.89-15.73-3.02-31.35-8.57-41.77-21.23-5.84-7.09-7.56-15.76-17.78-18.22-33.02-7.97-92.6,22.42-126.03,30.46-7.57,1.82-20.71,5.34-25.41-3.01-4.4-7.81,2.45-15.29,6.81-21.6,6.27-9.08,17.32-19.71,22.24-28.76.79-1.44,1.42-2.61,1.15-4.35Z"/>
</svg>